<svg xmlns="http://www.w3.org/2000/svg" viewBox="0 0 1000 938" fill="rgba(255,90,31,0.04)" stroke="rgba(255,255,255,0.22)" stroke-width="1.2" stroke-linejoin="round" stroke-linecap="round">
<path d="M 9.2 299.8 L 26.9 307.7 L 31.9 309.9 L 43.3 312.3 L 47.7 313.6 L 59.6 316.3 L 66.1 317.8 L 73.4 319.5 L 82.1 321.3 L 87.1 322.4 L 101.7 330.2 L 106.7 332.9 L 115.7 337.5 L 120.2 339.8 L 125.1 342.4 L 129.1 344.2 L 139.5 348.6 L 145.4 351.1 L 156.1 355.6 L 160.2 357.3 L 164.8 359.3 L 172.7 362.6 L 177.2 364.5 L 174.3 366.9 L 171.4 369.1 L 168.8 371.7 L 166.0 374.0 L 162.4 374.7 L 159.1 376.2 L 156.2 378.4 L 153.3 380.6 L 151.0 384.1 L 147.6 382.7 L 143.9 382.7 L 141.5 385.4 L 139.1 388.2 L 136.6 390.9 L 133.0 392.2 L 126.8 394.6 L 125.3 391.2 L 121.7 391.4 L 118.2 390.3 L 114.6 389.9 L 111.0 389.7 L 107.3 389.6 L 103.7 390.2 L 99.9 389.5 L 96.3 389.8 L 93.0 391.4 L 89.5 392.4 L 85.9 392.1 L 83.2 389.5 L 80.9 384.2 L 80.9 378.1 L 80.9 368.9 L 81.0 362.8 L 82.9 359.4 L 82.2 355.8 L 78.5 356.4 L 75.7 358.8 L 72.8 361.0 L 69.8 363.2 L 66.9 365.8 L 63.4 366.5 L 52.2 367.1 L 47.8 367.1 L 43.5 367.1 L 44.1 363.4 L 41.3 361.1 L 40.9 357.4 L 38.3 354.7 L 34.7 354.3 L 31.2 353.5 L 22.1 352.9 L 21.6 349.3 L 24.3 346.7 L 25.0 343.1 L 22.7 340.1 L 21.0 336.7 L 17.9 334.6 L 17.1 331.0 L 14.0 329.1 L 10.9 327.2 L 9.6 323.5 L 8.7 320.0 L 5.9 317.8 L 7.4 314.5 L 4.4 312.3 L 1.4 309.6 L 1.5 305.8 L 3.9 303.0 L 6.7 300.6 L 4.5 297.6 L 9.2 299.8 Z M 926.1 338.8 L 929.8 339.9 L 933.5 340.7 L 931.8 343.9 L 930.1 347.4 L 927.8 350.2 L 925.3 353.0 L 922.8 355.8 L 920.5 358.6 L 917.6 360.9 L 915.6 363.9 L 913.4 366.9 L 910.9 369.7 L 908.1 372.2 L 906.0 375.3 L 904.2 378.6 L 900.7 377.5 L 899.0 374.0 L 895.2 373.1 L 892.2 370.6 L 890.1 367.2 L 886.0 365.0 L 882.4 363.0 L 879.1 361.4 L 875.4 360.8 L 872.4 358.4 L 869.0 357.0 L 865.4 355.7 L 862.6 353.5 L 859.5 351.0 L 862.3 347.9 L 865.8 346.4 L 868.2 343.6 L 869.8 340.3 L 872.7 342.5 L 876.5 342.1 L 879.6 344.3 L 882.4 346.6 L 885.4 348.8 L 888.6 350.6 L 892.2 349.7 L 896.6 349.6 L 901.2 349.5 L 904.6 348.3 L 907.3 345.4 L 910.6 343.5 L 913.4 340.8 L 917.0 340.0 L 920.7 340.6 L 924.1 338.9 L 926.1 338.8 Z M 160.2 77.9 L 161.2 81.4 L 164.7 82.8 L 165.7 86.3 L 166.1 90.1 L 166.0 93.9 L 166.1 97.8 L 171.5 97.1 L 177.7 102.7 L 184.4 108.5 L 188.2 108.5 L 191.7 107.5 L 194.6 105.2 L 197.7 103.4 L 201.3 102.4 L 203.8 105.2 L 202.3 108.5 L 205.8 109.8 L 206.9 106.3 L 210.1 104.5 L 212.4 101.5 L 215.6 99.9 L 218.2 97.2 L 221.8 97.1 L 224.9 95.0 L 227.4 92.4 L 230.5 90.1 L 231.9 93.9 L 233.8 90.8 L 236.7 88.7 L 238.5 85.4 L 238.6 81.8 L 240.8 78.8 L 244.4 79.0 L 248.0 78.1 L 250.7 75.4 L 254.5 75.1 L 259.5 74.3 L 262.1 77.1 L 266.1 78.0 L 270.4 79.4 L 270.8 85.5 L 269.5 88.9 L 272.0 91.7 L 274.1 96.5 L 275.5 100.5 L 277.6 103.6 L 277.2 107.8 L 275.8 112.7 L 277.0 116.5 L 277.0 120.1 L 278.0 123.5 L 280.5 127.3 L 281.9 130.7 L 282.6 134.3 L 281.6 137.9 L 281.0 141.6 L 278.5 144.2 L 279.5 147.8 L 282.6 150.1 L 285.6 152.2 L 288.5 155.6 L 290.3 158.9 L 293.8 159.9 L 297.7 161.5 L 300.5 164.5 L 299.1 161.1 L 297.2 158.0 L 298.4 154.4 L 298.7 150.7 L 299.2 147.0 L 300.9 143.6 L 303.6 141.2 L 306.9 139.8 L 310.7 139.0 L 314.4 140.7 L 317.0 143.4 L 318.2 146.9 L 322.0 147.7 L 324.8 145.2 L 328.7 144.1 L 327.0 140.7 L 328.1 137.0 L 329.1 133.3 L 330.9 130.1 L 332.1 126.7 L 333.9 123.4 L 349.9 120.4 L 355.7 120.4 L 362.9 120.4 L 362.9 127.0 L 363.7 130.6 L 363.4 134.9 L 366.6 137.0 L 366.9 140.7 L 368.6 143.9 L 371.9 146.6 L 374.1 149.6 L 375.7 153.0 L 379.2 154.7 L 383.4 153.2 L 384.6 157.8 L 386.5 161.0 L 389.6 162.9 L 392.7 164.9 L 396.2 166.1 L 399.5 167.9 L 403.1 168.1 L 406.4 169.8 L 408.8 172.8 L 411.8 175.2 L 414.0 178.1 L 417.5 179.7 L 421.0 178.9 L 424.6 178.3 L 427.7 176.1 L 426.1 180.1 L 422.6 182.5 L 422.1 187.2 L 414.0 204.6 L 411.1 210.8 L 409.5 214.6 L 408.0 218.0 L 395.3 245.0 L 387.7 261.3 L 380.7 276.5 L 378.1 282.2 L 375.5 284.7 L 372.9 287.7 L 374.0 292.8 L 377.5 296.4 L 380.0 299.2 L 380.9 303.2 L 379.3 306.8 L 378.8 310.5 L 376.4 314.3 L 376.4 318.2 L 377.4 321.8 L 376.7 325.5 L 375.4 329.3 L 374.8 332.9 L 376.6 336.3 L 372.4 338.3 L 357.3 338.3 L 343.4 338.3 L 339.8 338.2 L 326.5 338.1 L 318.4 338.2 L 307.8 338.2 L 298.3 338.2 L 295.3 336.0 L 292.0 337.7 L 288.9 340.0 L 285.2 338.3 L 283.9 334.9 L 280.2 333.6 L 279.4 329.7 L 276.4 327.7 L 273.6 325.2 L 271.8 321.8 L 268.8 319.6 L 252.2 318.4 L 248.8 320.1 L 246.7 323.3 L 245.4 326.9 L 241.8 326.8 L 240.8 330.5 L 240.0 334.0 L 237.2 336.2 L 236.6 340.0 L 233.8 342.8 L 229.8 342.3 L 226.0 343.3 L 222.1 343.5 L 218.5 344.2 L 218.0 347.8 L 215.8 350.9 L 212.7 353.8 L 211.1 350.5 L 207.1 350.8 L 205.7 354.2 L 202.0 353.0 L 199.2 355.5 L 195.6 355.3 L 192.8 353.0 L 189.1 352.9 L 185.1 352.9 L 181.9 355.7 L 179.2 358.5 L 175.6 360.2 L 172.7 362.6 L 165.5 359.6 L 160.2 357.3 L 156.1 355.6 L 145.4 351.1 L 139.5 348.6 L 129.1 344.2 L 125.1 342.4 L 120.2 339.8 L 115.7 337.5 L 109.5 334.4 L 101.7 330.2 L 87.1 322.4 L 82.1 321.3 L 73.4 319.5 L 66.1 317.8 L 59.6 316.3 L 47.7 313.6 L 43.7 312.4 L 32.0 310.0 L 26.9 307.7 L 9.2 299.8 L 5.7 298.3 L 6.1 294.5 L 7.2 291.0 L 9.7 288.3 L 13.2 286.7 L 16.5 285.2 L 19.8 283.5 L 20.6 280.0 L 19.1 276.7 L 18.0 273.1 L 19.4 269.6 L 21.4 266.6 L 23.9 263.8 L 24.8 260.3 L 25.5 256.6 L 27.0 253.3 L 28.2 249.8 L 31.5 248.2 L 34.6 246.0 L 37.7 244.2 L 40.4 241.7 L 44.0 240.5 L 46.8 238.3 L 49.6 235.9 L 53.2 234.6 L 56.8 234.7 L 60.3 233.8 L 64.0 233.5 L 67.4 232.3 L 71.1 232.4 L 74.3 230.6 L 76.4 227.6 L 79.9 226.4 L 83.7 226.8 L 87.5 227.2 L 89.5 230.3 L 93.2 229.6 L 96.8 230.1 L 98.4 222.8 L 99.8 215.5 L 100.5 211.9 L 101.2 207.8 L 101.9 203.9 L 102.9 198.8 L 105.2 185.3 L 105.9 181.8 L 106.6 178.0 L 107.3 174.0 L 108.3 167.8 L 109.1 163.5 L 109.8 159.9 L 109.6 156.1 L 109.7 152.5 L 107.9 149.3 L 106.2 145.9 L 106.2 142.3 L 105.0 138.8 L 101.8 136.8 L 98.7 135.0 L 96.0 132.3 L 94.9 128.1 L 94.9 113.3 L 98.5 112.7 L 102.1 111.9 L 105.8 111.1 L 108.9 109.2 L 111.4 112.0 L 115.1 112.1 L 115.8 108.3 L 115.5 104.7 L 114.0 101.4 L 110.3 101.1 L 106.6 100.7 L 103.0 100.7 L 99.7 90.6 L 99.7 85.3 L 103.5 84.7 L 107.5 83.9 L 115.7 85.0 L 120.0 85.0 L 131.9 85.1 L 140.2 85.1 L 137.6 82.3 L 139.6 79.1 L 142.7 81.0 L 146.3 81.8 L 148.6 79.0 L 152.2 78.1 L 154.8 75.2 L 157.7 72.8 L 160.0 76.2 L 160.2 77.9 Z M 548.3 30.3 L 550.7 33.1 L 550.6 36.8 L 550.8 40.6 L 550.5 44.8 L 551.7 48.3 L 552.5 52.3 L 553.1 56.1 L 554.9 59.4 L 556.2 62.8 L 556.6 66.4 L 558.5 69.4 L 559.6 73.0 L 563.9 73.7 L 567.3 75.4 L 569.2 78.9 L 571.0 83.3 L 575.0 83.8 L 578.6 85.7 L 579.4 89.7 L 579.5 93.3 L 579.1 97.1 L 577.9 101.7 L 576.4 105.3 L 574.5 109.8 L 569.1 110.4 L 565.8 113.0 L 564.1 117.7 L 561.7 121.1 L 558.8 123.6 L 554.6 124.9 L 551.1 128.5 L 547.5 129.5 L 545.4 132.8 L 543.0 136.7 L 541.0 139.8 L 538.4 142.3 L 536.3 145.6 L 536.1 150.3 L 533.9 154.0 L 530.3 154.0 L 527.3 156.4 L 524.5 153.9 L 520.6 153.5 L 518.5 149.9 L 515.9 147.3 L 516.7 143.8 L 514.9 140.5 L 512.0 138.4 L 512.2 134.2 L 508.5 131.2 L 505.6 128.2 L 504.3 124.4 L 502.0 121.1 L 500.4 117.5 L 500.9 113.9 L 502.1 110.4 L 499.4 107.8 L 496.1 105.3 L 494.3 102.2 L 495.1 98.3 L 491.5 97.3 L 489.4 94.3 L 485.8 93.0 L 482.1 92.2 L 478.6 90.8 L 477.1 87.3 L 473.9 85.6 L 470.3 84.4 L 466.7 83.9 L 462.7 84.0 L 462.0 80.0 L 461.1 76.5 L 461.4 72.8 L 459.7 68.9 L 464.1 67.9 L 470.1 73.6 L 476.0 74.3 L 480.5 73.1 L 483.5 71.0 L 487.1 70.2 L 490.3 71.9 L 494.0 71.9 L 497.5 71.2 L 500.2 73.8 L 503.9 74.5 L 507.3 73.4 L 510.2 71.0 L 513.0 68.6 L 515.1 65.6 L 516.2 62.1 L 517.7 58.6 L 519.5 55.3 L 520.4 51.7 L 522.2 48.5 L 524.8 45.8 L 526.8 42.4 L 528.8 39.4 L 530.3 36.0 L 533.0 33.6 L 535.0 30.6 L 537.6 27.6 L 538.6 24.0 L 539.5 20.3 L 543.3 22.5 L 545.8 25.1 L 547.8 28.1 L 548.3 30.3 Z M 834.2 332.5 L 835.5 336.0 L 839.6 336.5 L 842.9 338.1 L 847.4 339.3 L 849.8 342.7 L 851.4 339.0 L 853.1 342.6 L 856.7 342.9 L 857.7 346.6 L 859.2 350.0 L 860.9 353.3 L 864.5 354.3 L 864.5 357.9 L 864.5 361.7 L 865.5 365.2 L 869.2 367.1 L 870.6 370.4 L 871.4 374.5 L 868.7 377.0 L 869.1 380.8 L 865.8 385.2 L 862.3 384.1 L 859.4 386.3 L 860.7 389.7 L 863.0 392.5 L 864.9 395.7 L 865.2 399.3 L 868.4 401.4 L 871.1 403.9 L 874.8 404.1 L 878.5 403.5 L 877.7 407.3 L 875.8 411.2 L 874.2 415.0 L 872.2 418.3 L 869.1 422.9 L 866.5 426.5 L 864.4 429.4 L 861.6 432.8 L 859.2 435.7 L 856.4 438.0 L 853.1 439.4 L 849.4 439.9 L 846.0 442.4 L 842.8 444.4 L 842.1 448.0 L 842.8 451.6 L 843.3 455.3 L 841.3 458.3 L 842.8 461.6 L 842.1 465.3 L 841.3 469.0 L 840.9 472.7 L 840.0 476.8 L 839.6 480.4 L 840.5 484.4 L 841.2 489.5 L 841.3 493.3 L 841.9 496.9 L 842.5 500.6 L 843.0 504.3 L 844.4 507.7 L 843.2 511.3 L 842.4 515.0 L 840.6 518.3 L 839.7 522.1 L 838.9 525.9 L 837.8 529.4 L 838.1 533.0 L 837.0 536.6 L 836.0 540.8 L 836.2 545.1 L 836.6 548.8 L 836.9 552.8 L 834.7 555.7 L 830.6 558.0 L 828.3 560.9 L 826.3 564.3 L 825.0 567.8 L 821.2 565.0 L 811.7 558.9 L 812.6 555.3 L 810.3 552.5 L 807.4 550.1 L 805.5 547.1 L 802.1 545.1 L 803.5 541.5 L 803.7 537.6 L 805.0 533.6 L 808.7 532.6 L 809.6 529.0 L 810.5 525.1 L 813.7 523.2 L 816.4 520.3 L 819.0 517.7 L 820.4 514.3 L 818.4 511.1 L 815.1 509.3 L 812.0 507.5 L 808.3 506.9 L 804.9 505.7 L 801.2 504.3 L 797.5 502.8 L 793.7 503.3 L 790.2 505.1 L 786.3 505.1 L 784.5 499.3 L 777.8 493.3 L 774.1 489.9 L 770.7 491.2 L 767.0 491.7 L 763.8 489.8 L 760.0 489.0 L 756.6 486.9 L 753.3 485.4 L 750.0 483.4 L 747.1 481.1 L 743.6 479.8 L 740.1 479.0 L 736.2 480.0 L 733.3 482.2 L 729.8 481.3 L 726.4 479.9 L 723.8 477.3 L 725.0 473.7 L 723.5 470.3 L 719.8 470.1 L 716.1 469.3 L 712.5 469.4 L 709.2 471.1 L 705.8 472.4 L 702.9 474.6 L 700.3 477.1 L 697.2 479.1 L 693.7 481.2 L 690.3 482.7 L 687.3 485.3 L 683.6 485.9 L 680.7 489.2 L 677.2 490.1 L 673.5 491.0 L 671.0 493.6 L 671.8 490.1 L 673.7 486.4 L 671.6 483.2 L 672.2 479.6 L 673.4 476.2 L 674.6 472.5 L 672.7 469.4 L 669.6 466.9 L 666.9 464.6 L 666.6 460.9 L 667.2 457.1 L 669.0 453.4 L 667.5 450.0 L 670.4 447.4 L 666.5 447.5 L 665.6 443.8 L 666.1 440.2 L 669.4 438.4 L 665.5 438.0 L 666.2 434.2 L 666.3 430.5 L 669.0 427.8 L 666.5 425.1 L 663.9 422.1 L 664.0 418.4 L 664.3 414.7 L 667.8 413.5 L 664.1 412.4 L 664.9 408.8 L 668.4 406.9 L 665.3 404.1 L 661.6 403.6 L 659.7 400.3 L 660.8 396.1 L 662.7 392.0 L 665.2 389.4 L 667.3 386.3 L 667.8 382.7 L 671.3 381.6 L 675.1 378.5 L 677.8 375.5 L 680.1 372.2 L 683.0 370.0 L 684.3 373.7 L 686.6 376.8 L 686.1 380.4 L 688.3 384.7 L 691.2 386.8 L 694.8 387.3 L 698.6 389.4 L 702.0 386.5 L 704.9 383.7 L 708.3 382.6 L 712.4 380.4 L 715.9 381.9 L 719.3 380.5 L 720.5 376.8 L 724.0 375.0 L 726.3 371.4 L 728.4 368.1 L 728.3 364.5 L 726.1 361.4 L 724.9 357.9 L 726.1 354.0 L 730.0 352.0 L 732.8 349.8 L 736.5 351.9 L 740.0 352.7 L 743.7 353.0 L 746.7 355.7 L 749.7 358.0 L 753.3 356.0 L 757.2 354.9 L 760.3 352.2 L 763.4 349.9 L 767.4 349.2 L 771.0 349.7 L 773.8 347.0 L 775.5 343.5 L 778.9 342.0 L 781.3 339.3 L 783.6 336.4 L 787.3 336.3 L 790.6 337.8 L 794.0 339.2 L 796.6 341.9 L 797.8 345.4 L 800.9 347.2 L 799.2 350.4 L 798.4 354.0 L 802.1 354.6 L 805.3 352.9 L 809.0 351.5 L 810.2 347.4 L 814.0 345.7 L 817.6 344.4 L 820.1 341.4 L 823.2 338.1 L 825.2 334.8 L 828.7 333.5 L 831.9 331.8 L 834.2 332.5 Z M 816.7 194.9 L 820.5 196.5 L 823.5 198.5 L 826.8 200.4 L 830.0 202.2 L 833.3 203.7 L 836.6 205.9 L 839.4 208.4 L 842.7 210.0 L 845.8 212.0 L 848.6 214.5 L 852.2 216.0 L 855.4 218.4 L 857.9 221.3 L 860.5 223.8 L 862.9 226.8 L 865.6 229.3 L 868.6 231.9 L 871.3 234.2 L 873.8 236.9 L 877.3 237.9 L 880.6 239.4 L 883.0 242.6 L 878.5 244.0 L 873.8 245.1 L 872.1 248.4 L 870.2 252.0 L 868.5 255.9 L 866.5 259.5 L 864.1 262.3 L 862.7 266.4 L 861.0 269.8 L 858.6 272.5 L 854.8 272.7 L 852.5 275.6 L 851.3 279.3 L 850.9 282.9 L 849.4 286.4 L 850.3 290.0 L 847.6 292.3 L 848.6 295.9 L 849.7 299.4 L 852.3 302.0 L 850.9 305.4 L 849.1 308.6 L 846.3 311.0 L 843.2 312.8 L 839.8 314.6 L 837.0 312.1 L 833.6 310.7 L 832.6 307.2 L 829.4 305.4 L 826.5 303.0 L 822.9 302.7 L 819.1 303.1 L 815.2 304.6 L 811.2 305.4 L 807.0 304.3 L 804.8 300.4 L 805.9 296.9 L 806.9 293.4 L 806.3 289.8 L 802.5 288.1 L 799.6 285.6 L 797.9 282.2 L 798.2 278.2 L 796.6 274.9 L 795.4 271.4 L 795.4 267.4 L 794.8 263.9 L 794.7 260.1 L 795.1 256.3 L 794.5 252.7 L 792.7 249.4 L 789.8 246.8 L 787.3 244.0 L 787.6 240.3 L 787.6 236.7 L 789.2 232.7 L 789.8 228.5 L 790.1 224.7 L 787.1 222.6 L 786.4 218.7 L 785.0 215.2 L 785.2 211.5 L 783.4 208.3 L 785.3 203.1 L 786.9 199.8 L 786.5 196.2 L 790.2 196.2 L 794.0 195.9 L 798.0 195.7 L 801.6 195.2 L 805.1 193.6 L 809.2 194.1 L 812.9 194.6 L 816.6 195.0 L 816.7 194.9 Z M 799.7 627.7 L 797.6 630.7 L 796.6 634.4 L 794.2 637.2 L 790.5 636.8 L 786.9 636.9 L 783.3 636.4 L 779.6 635.6 L 776.3 634.3 L 775.8 630.4 L 774.9 626.9 L 772.7 624.0 L 773.7 620.4 L 772.7 616.4 L 774.6 613.0 L 779.7 612.4 L 783.4 612.2 L 785.1 609.0 L 786.9 605.8 L 789.1 602.9 L 789.7 599.2 L 792.0 596.3 L 794.0 593.2 L 795.0 589.7 L 793.7 586.2 L 792.4 582.8 L 789.4 580.7 L 793.3 579.5 L 794.4 575.9 L 792.4 572.1 L 788.9 570.0 L 789.7 566.3 L 792.2 563.3 L 795.6 562.0 L 796.8 558.5 L 800.2 559.9 L 803.0 557.6 L 806.7 557.5 L 810.5 558.5 L 819.0 563.5 L 824.6 567.1 L 823.9 570.6 L 823.6 574.3 L 823.1 578.2 L 823.4 582.2 L 823.9 586.2 L 824.6 590.6 L 823.7 594.2 L 822.0 598.0 L 818.8 600.2 L 816.0 602.7 L 814.1 605.9 L 813.0 609.6 L 812.0 613.2 L 809.5 616.9 L 808.0 620.3 L 805.7 623.2 L 803.3 626.0 L 800.0 627.7 L 799.7 627.7 Z M 572.9 425.1 L 571.6 428.5 L 569.7 431.7 L 569.7 435.3 L 573.0 436.8 L 576.6 437.6 L 580.8 439.6 L 586.1 442.6 L 589.8 444.6 L 592.5 442.2 L 594.0 438.9 L 596.1 435.8 L 599.5 437.0 L 603.6 434.8 L 606.6 437.0 L 609.4 439.6 L 610.7 443.2 L 610.7 446.8 L 612.3 443.2 L 614.8 445.8 L 618.0 444.0 L 620.8 446.5 L 624.8 445.8 L 628.4 446.8 L 632.5 450.4 L 633.1 446.8 L 632.9 443.0 L 636.6 443.7 L 640.3 445.1 L 643.7 443.8 L 647.3 443.0 L 650.5 441.3 L 654.8 438.4 L 659.5 438.5 L 662.7 435.9 L 664.9 438.7 L 668.5 437.9 L 665.9 440.4 L 665.5 444.1 L 667.9 446.9 L 671.3 445.5 L 669.2 448.4 L 667.3 451.6 L 666.8 455.6 L 667.2 459.5 L 667.6 463.1 L 668.3 466.8 L 671.6 468.1 L 674.0 471.0 L 672.5 474.5 L 673.2 478.1 L 672.6 481.7 L 671.2 485.1 L 667.7 485.9 L 665.2 483.2 L 662.1 480.8 L 660.1 484.5 L 660.8 488.5 L 657.2 489.3 L 653.1 487.5 L 651.0 490.9 L 652.7 495.0 L 650.5 497.9 L 651.3 501.5 L 653.0 504.8 L 653.3 508.5 L 647.6 509.8 L 644.1 510.9 L 640.5 511.6 L 639.9 508.0 L 641.1 504.6 L 639.8 501.2 L 636.1 499.3 L 624.0 499.3 L 620.0 499.3 L 619.1 503.1 L 618.3 506.6 L 618.6 510.4 L 622.7 512.5 L 629.2 512.5 L 634.0 512.5 L 637.7 512.5 L 641.4 512.5 L 640.7 516.1 L 639.7 519.6 L 637.9 523.0 L 640.6 525.5 L 643.0 528.2 L 644.0 532.0 L 645.5 535.4 L 642.6 537.7 L 640.1 540.4 L 638.0 543.4 L 636.5 546.7 L 640.4 548.0 L 642.2 551.2 L 640.3 554.4 L 640.8 558.2 L 640.3 561.9 L 637.1 563.8 L 633.9 565.5 L 631.7 568.4 L 628.5 570.1 L 624.8 570.3 L 621.2 569.2 L 618.1 567.3 L 614.3 568.1 L 610.8 567.2 L 607.2 567.9 L 603.6 567.0 L 600.0 568.3 L 596.3 569.4 L 593.9 572.3 L 591.3 574.9 L 589.1 572.0 L 585.2 572.8 L 581.9 574.8 L 577.6 574.2 L 572.8 575.3 L 569.1 576.3 L 566.8 579.2 L 564.4 582.2 L 563.7 585.9 L 560.4 587.5 L 557.1 590.4 L 555.8 593.8 L 552.3 593.1 L 549.4 590.5 L 545.9 589.4 L 542.8 587.6 L 538.8 586.6 L 535.2 586.0 L 531.7 584.3 L 528.5 582.7 L 525.3 580.8 L 521.5 579.3 L 518.4 577.0 L 515.1 575.3 L 511.4 576.0 L 507.6 574.9 L 506.8 571.1 L 509.7 568.7 L 506.4 566.6 L 502.9 567.6 L 501.5 563.2 L 502.9 559.0 L 501.3 555.4 L 498.9 552.5 L 498.6 548.8 L 499.4 545.2 L 499.8 541.6 L 501.8 538.4 L 503.3 535.0 L 505.5 532.1 L 508.2 529.7 L 510.7 527.0 L 513.3 524.6 L 512.1 520.8 L 514.1 517.8 L 516.0 514.7 L 519.6 513.7 L 521.7 510.5 L 525.5 508.8 L 529.0 507.5 L 532.4 505.7 L 534.6 501.9 L 535.6 498.2 L 536.2 494.5 L 537.8 491.2 L 540.4 488.6 L 544.0 487.3 L 547.9 487.4 L 550.7 485.0 L 551.4 481.2 L 552.8 477.2 L 552.8 473.5 L 553.6 469.2 L 555.8 466.2 L 555.9 462.5 L 556.2 458.8 L 557.8 454.8 L 559.5 451.0 L 561.3 447.7 L 562.6 444.3 L 562.0 440.7 L 564.1 437.7 L 564.8 434.0 L 566.4 430.6 L 568.7 427.7 L 571.9 425.5 L 572.9 425.1 Z M 648.1 342.7 L 650.2 339.7 L 650.9 336.0 L 651.9 332.5 L 653.7 329.3 L 656.8 327.0 L 660.3 326.0 L 661.0 321.8 L 660.4 318.0 L 657.0 316.6 L 653.5 317.8 L 650.0 319.2 L 646.3 318.8 L 644.6 315.5 L 642.3 312.6 L 639.9 309.9 L 637.3 307.1 L 637.3 303.0 L 633.8 302.2 L 630.9 299.8 L 634.0 297.1 L 636.1 293.7 L 636.4 289.9 L 637.6 285.6 L 638.4 281.4 L 639.7 277.4 L 638.5 273.8 L 638.5 269.4 L 637.7 265.8 L 637.3 262.2 L 635.5 258.1 L 631.0 256.0 L 627.8 253.4 L 623.8 253.1 L 619.8 252.9 L 616.3 251.1 L 612.3 251.5 L 610.2 255.0 L 613.9 249.6 L 619.7 245.1 L 623.4 242.2 L 629.2 237.6 L 633.1 237.0 L 636.1 233.5 L 638.0 230.0 L 640.3 227.1 L 641.9 223.8 L 644.7 221.4 L 646.9 218.5 L 647.9 214.9 L 649.4 211.4 L 650.2 207.8 L 653.2 205.7 L 655.4 202.6 L 656.8 199.2 L 657.5 195.6 L 656.7 191.9 L 659.9 189.7 L 662.9 187.5 L 663.0 183.7 L 664.3 180.2 L 666.4 177.0 L 667.6 172.7 L 665.3 169.8 L 668.3 167.7 L 669.4 163.3 L 670.0 159.7 L 669.2 156.1 L 672.0 153.3 L 673.9 156.3 L 675.9 153.1 L 675.7 157.0 L 679.1 154.8 L 679.5 158.5 L 683.0 156.9 L 684.4 160.2 L 687.0 157.7 L 685.4 161.2 L 688.5 158.9 L 687.6 162.6 L 688.4 166.8 L 691.2 164.2 L 694.0 161.6 L 697.6 162.9 L 700.6 160.8 L 699.2 164.2 L 702.1 166.4 L 701.8 170.1 L 705.4 169.1 L 706.7 172.5 L 709.2 175.2 L 710.3 178.6 L 712.3 182.4 L 713.1 186.8 L 716.6 185.8 L 720.2 184.6 L 720.9 188.7 L 723.3 185.9 L 726.0 183.0 L 729.8 180.3 L 732.5 183.0 L 736.8 182.9 L 740.5 183.7 L 744.5 185.6 L 747.8 187.1 L 751.2 188.3 L 754.3 190.4 L 758.6 191.8 L 762.4 191.5 L 766.0 191.5 L 769.6 192.1 L 773.3 192.1 L 772.3 195.8 L 773.2 199.4 L 770.8 202.1 L 768.3 204.7 L 765.8 207.4 L 762.5 209.5 L 758.8 209.7 L 755.5 212.2 L 752.8 215.0 L 751.7 219.8 L 749.2 222.7 L 747.3 225.8 L 745.4 229.8 L 747.7 232.7 L 748.2 236.4 L 746.1 239.4 L 747.4 243.1 L 748.8 247.6 L 749.8 251.3 L 749.2 255.2 L 746.2 257.5 L 744.3 260.6 L 743.1 264.5 L 742.6 268.5 L 743.2 272.2 L 745.6 274.9 L 748.5 277.2 L 747.9 281.0 L 747.7 284.7 L 745.5 288.2 L 741.8 289.7 L 737.6 290.2 L 734.1 291.2 L 731.2 288.9 L 727.8 287.7 L 723.8 289.1 L 720.1 289.2 L 717.3 291.8 L 715.3 294.9 L 712.3 297.8 L 709.1 299.4 L 706.1 302.4 L 702.2 304.0 L 698.8 305.9 L 695.2 307.1 L 691.7 308.6 L 687.9 309.8 L 685.2 312.5 L 684.1 316.0 L 683.1 319.7 L 682.3 323.5 L 680.6 326.6 L 679.1 330.1 L 678.2 333.8 L 675.5 336.8 L 673.5 339.9 L 674.2 343.6 L 675.3 347.5 L 675.4 351.3 L 678.0 354.0 L 676.8 357.5 L 677.1 361.1 L 676.3 364.8 L 675.7 368.5 L 674.2 371.8 L 670.5 372.2 L 666.3 371.4 L 662.8 369.1 L 661.7 365.6 L 659.3 362.5 L 658.1 359.0 L 659.0 355.5 L 656.9 352.4 L 653.3 350.4 L 652.4 346.7 L 649.1 344.9 L 648.1 342.7 Z M 680.6 158.0 L 681.8 154.2 L 681.5 157.9 L 680.6 158.0 Z M 715.9 469.1 L 719.5 470.0 L 723.1 470.5 L 725.0 473.7 L 723.7 477.2 L 726.3 479.8 L 729.6 481.2 L 733.1 482.2 L 736.2 480.0 L 740.0 479.0 L 743.6 479.8 L 747.0 481.2 L 750.0 483.4 L 753.2 485.3 L 756.5 486.8 L 759.5 489.1 L 763.0 489.9 L 766.4 491.3 L 770.1 491.5 L 773.4 489.9 L 777.8 493.3 L 781.9 496.9 L 784.8 502.6 L 787.9 505.0 L 791.6 504.6 L 794.8 503.0 L 798.3 504.2 L 802.0 504.5 L 805.3 505.9 L 808.9 506.9 L 812.4 507.9 L 815.5 509.8 L 818.9 511.2 L 819.9 514.8 L 818.6 518.3 L 816.1 521.0 L 813.3 523.6 L 810.2 525.7 L 809.4 529.2 L 810.3 533.0 L 806.7 532.6 L 803.8 535.5 L 803.3 539.7 L 802.5 543.2 L 804.6 546.3 L 807.2 549.0 L 809.9 551.6 L 812.2 554.7 L 811.3 558.2 L 807.7 557.5 L 803.9 557.1 L 801.2 559.7 L 797.8 558.4 L 798.5 562.0 L 794.9 562.5 L 791.4 563.7 L 789.2 566.8 L 792.5 570.4 L 792.2 574.0 L 794.5 577.1 L 791.0 579.5 L 787.5 578.5 L 790.2 581.1 L 791.5 584.6 L 794.4 586.9 L 794.7 590.5 L 794.1 594.2 L 791.7 597.3 L 788.9 599.9 L 788.8 603.6 L 786.1 606.0 L 784.9 609.5 L 779.7 612.4 L 774.9 612.4 L 772.7 615.4 L 773.8 618.9 L 772.6 622.3 L 772.1 626.0 L 769.9 628.9 L 766.4 630.2 L 765.6 634.0 L 764.5 637.5 L 763.0 640.9 L 761.7 644.2 L 762.2 647.8 L 758.6 650.1 L 755.0 651.6 L 751.4 653.2 L 747.8 654.6 L 744.4 656.5 L 740.8 656.1 L 737.0 655.8 L 733.6 657.2 L 729.9 657.4 L 725.8 657.5 L 722.4 658.7 L 718.9 659.8 L 715.5 661.6 L 711.9 661.8 L 708.5 663.1 L 705.1 664.5 L 701.5 665.3 L 697.9 666.7 L 694.0 667.4 L 690.7 669.5 L 687.4 671.2 L 683.7 671.2 L 680.6 669.3 L 678.1 672.1 L 678.5 675.8 L 674.7 675.3 L 671.1 676.9 L 667.2 676.7 L 663.6 676.4 L 662.3 673.0 L 662.4 669.3 L 659.8 666.8 L 656.8 664.7 L 656.4 661.1 L 655.6 657.5 L 657.1 654.3 L 657.2 650.5 L 659.3 647.3 L 660.4 643.8 L 657.6 641.4 L 654.2 640.2 L 650.9 641.6 L 648.1 639.0 L 646.0 635.9 L 645.3 632.3 L 643.1 628.7 L 644.4 625.3 L 645.9 621.7 L 643.3 619.1 L 641.7 615.8 L 642.7 612.1 L 639.8 609.5 L 637.6 606.6 L 634.1 608.5 L 630.4 607.1 L 627.7 609.9 L 623.9 610.3 L 620.4 609.2 L 616.6 610.2 L 613.0 610.8 L 609.3 611.4 L 605.0 611.3 L 603.6 614.8 L 601.1 611.6 L 597.8 613.9 L 594.4 612.9 L 593.4 609.2 L 590.2 607.0 L 586.8 605.3 L 582.7 605.6 L 579.0 606.0 L 574.9 604.7 L 570.8 604.5 L 566.7 602.7 L 562.9 603.0 L 559.3 605.7 L 555.8 607.1 L 552.7 609.4 L 552.6 605.6 L 552.0 601.6 L 552.9 598.0 L 556.5 595.4 L 556.6 591.7 L 558.8 588.8 L 562.6 586.7 L 564.8 583.7 L 566.5 579.5 L 568.9 576.5 L 572.8 575.3 L 576.1 573.8 L 579.8 574.1 L 583.8 573.7 L 587.3 572.5 L 590.7 574.7 L 593.8 572.4 L 595.8 569.3 L 599.5 569.0 L 602.3 566.7 L 605.9 567.8 L 609.5 567.2 L 613.1 567.9 L 617.2 568.6 L 620.9 568.3 L 624.5 570.1 L 628.1 570.7 L 631.0 568.4 L 633.7 566.0 L 636.7 564.0 L 639.9 562.1 L 641.3 558.5 L 640.1 555.0 L 641.9 551.8 L 641.1 548.1 L 637.3 547.6 L 636.5 543.9 L 639.0 541.2 L 641.7 538.7 L 644.4 536.2 L 644.2 532.5 L 643.3 528.9 L 641.2 525.9 L 638.1 524.0 L 638.8 520.5 L 640.8 517.3 L 640.9 513.6 L 643.8 511.2 L 647.6 509.8 L 651.9 508.8 L 653.0 505.3 L 651.3 501.5 L 650.5 497.9 L 652.7 495.0 L 650.3 492.2 L 650.8 488.5 L 654.8 488.0 L 658.2 489.3 L 659.9 485.9 L 659.3 482.1 L 662.8 481.4 L 665.6 483.8 L 668.6 486.0 L 671.8 484.3 L 673.5 488.2 L 671.4 491.5 L 675.9 491.0 L 679.5 489.9 L 682.3 487.2 L 686.0 486.1 L 689.0 483.9 L 691.7 481.4 L 695.4 480.7 L 698.3 478.4 L 701.1 476.1 L 704.1 474.0 L 706.9 471.7 L 710.4 470.5 L 713.9 469.3 L 715.9 469.1 Z M 483.6 557.5 L 486.9 559.3 L 490.6 559.6 L 494.2 559.0 L 498.9 559.5 L 502.7 560.3 L 501.9 564.6 L 503.9 567.8 L 507.4 566.9 L 507.5 570.6 L 506.0 574.1 L 509.4 575.6 L 513.2 575.9 L 517.2 575.8 L 519.8 578.4 L 523.4 579.6 L 526.3 581.9 L 529.8 582.9 L 533.0 584.7 L 536.9 586.7 L 540.6 587.0 L 543.9 588.5 L 547.5 589.6 L 550.9 591.1 L 553.5 594.0 L 554.4 597.5 L 551.7 600.7 L 552.7 605.2 L 552.4 609.2 L 551.3 613.0 L 546.9 615.1 L 543.7 617.0 L 540.8 620.7 L 537.6 624.9 L 537.8 628.6 L 534.6 631.8 L 531.9 634.6 L 532.1 638.6 L 530.3 642.4 L 526.8 643.9 L 526.8 648.7 L 524.2 651.3 L 521.2 654.4 L 519.6 658.1 L 516.9 660.7 L 513.6 662.3 L 509.4 664.6 L 505.8 666.9 L 502.6 668.9 L 500.2 672.7 L 496.7 673.9 L 492.9 676.3 L 490.0 678.4 L 489.3 682.6 L 487.6 685.9 L 485.0 688.8 L 481.5 690.2 L 480.0 693.6 L 478.7 697.9 L 478.2 702.3 L 474.7 704.8 L 471.4 703.4 L 468.7 700.9 L 465.3 699.5 L 461.8 700.4 L 458.3 701.7 L 455.1 703.4 L 450.6 703.6 L 447.0 703.0 L 446.0 699.5 L 445.3 695.9 L 443.7 692.6 L 444.2 689.0 L 443.5 685.4 L 442.1 682.1 L 441.2 678.5 L 440.9 674.8 L 441.7 671.3 L 439.1 668.6 L 438.7 664.9 L 436.1 662.3 L 432.5 662.3 L 428.9 662.3 L 425.4 660.8 L 423.2 658.0 L 419.6 659.1 L 417.2 661.7 L 413.6 661.5 L 409.8 661.7 L 406.2 661.5 L 402.6 661.5 L 399.1 660.5 L 395.5 659.8 L 392.3 658.0 L 388.8 658.8 L 385.4 657.5 L 385.8 653.9 L 386.6 650.0 L 385.9 646.4 L 386.2 642.7 L 387.9 639.5 L 388.0 635.7 L 388.0 632.0 L 386.1 628.9 L 386.4 625.3 L 384.2 622.3 L 384.5 618.4 L 382.1 615.6 L 381.4 612.0 L 383.6 609.0 L 387.1 607.8 L 381.2 601.6 L 384.2 595.4 L 389.6 584.2 L 395.0 565.1 L 394.0 560.5 L 391.1 555.2 L 390.3 551.6 L 393.6 553.3 L 396.2 556.1 L 399.7 555.4 L 403.2 554.3 L 406.7 553.0 L 409.4 550.0 L 411.8 547.0 L 414.1 544.0 L 417.7 543.1 L 421.2 542.6 L 424.9 541.8 L 428.0 539.9 L 431.7 539.8 L 435.2 541.7 L 438.6 543.3 L 442.3 544.3 L 444.7 547.0 L 448.1 548.5 L 451.4 550.1 L 455.0 550.8 L 458.7 550.0 L 462.3 548.9 L 465.6 547.1 L 469.2 547.9 L 472.0 551.0 L 475.6 550.1 L 479.3 548.9 L 481.8 546.2 L 484.6 543.9 L 486.9 540.9 L 487.6 551.3 L 484.0 552.2 L 482.0 555.5 L 483.6 557.5 Z M 327.6 446.4 L 329.9 442.7 L 331.3 439.2 L 334.2 436.7 L 334.3 433.1 L 335.3 429.6 L 337.9 426.9 L 340.6 424.5 L 339.1 421.0 L 338.4 417.5 L 336.6 414.2 L 334.1 411.6 L 333.5 408.0 L 334.1 404.4 L 336.9 401.7 L 337.3 397.9 L 336.9 394.0 L 333.3 393.6 L 329.6 393.3 L 326.0 392.0 L 316.3 390.8 L 312.3 390.8 L 302.0 390.8 L 299.7 387.4 L 300.3 383.6 L 301.1 380.1 L 300.5 376.4 L 298.5 373.3 L 298.2 369.5 L 299.5 365.9 L 299.7 362.2 L 300.7 358.4 L 298.9 354.8 L 297.2 351.2 L 299.8 347.7 L 299.5 344.0 L 300.5 340.3 L 307.8 338.2 L 315.9 338.2 L 326.2 338.1 L 339.8 338.2 L 343.4 338.3 L 357.3 338.3 L 372.4 338.3 L 375.9 336.7 L 374.8 332.9 L 375.4 329.3 L 376.5 325.9 L 377.4 322.3 L 376.5 318.5 L 375.2 315.1 L 377.6 312.2 L 379.2 308.3 L 380.2 304.4 L 383.6 305.9 L 385.7 309.5 L 387.4 314.2 L 388.4 317.9 L 390.9 321.3 L 393.0 324.4 L 392.3 328.0 L 393.2 331.6 L 394.2 336.0 L 397.3 337.9 L 400.9 340.3 L 405.1 342.9 L 407.4 345.8 L 409.9 348.6 L 413.4 350.1 L 425.9 352.7 L 437.5 353.6 L 456.6 355.2 L 465.8 355.9 L 472.5 356.4 L 478.0 356.8 L 490.4 357.7 L 496.5 358.2 L 501.4 358.5 L 513.7 359.4 L 520.0 359.9 L 529.8 360.5 L 545.3 361.6 L 551.5 362.0 L 556.4 362.3 L 571.3 363.2 L 569.9 366.6 L 567.8 369.6 L 567.1 373.2 L 565.3 376.8 L 564.2 380.3 L 562.6 383.6 L 561.8 387.2 L 561.8 391.1 L 560.7 394.9 L 559.9 398.6 L 558.9 402.0 L 560.7 405.2 L 559.4 408.7 L 561.3 412.4 L 560.2 415.9 L 560.4 419.6 L 561.3 423.3 L 561.0 427.0 L 559.9 430.7 L 561.9 433.7 L 564.6 436.1 L 562.5 439.2 L 562.4 443.3 L 561.7 447.2 L 560.0 450.6 L 558.1 453.8 L 555.8 456.8 L 556.5 460.6 L 556.7 465.0 L 554.2 468.3 L 553.1 471.7 L 553.6 475.9 L 552.0 479.2 L 551.0 482.7 L 549.1 486.3 L 545.7 488.1 L 542.1 488.0 L 538.9 490.0 L 536.6 493.2 L 536.1 496.8 L 535.2 500.5 L 533.4 504.3 L 531.2 507.2 L 527.2 508.6 L 523.6 508.6 L 521.2 511.5 L 518.1 513.9 L 515.5 516.7 L 512.2 518.6 L 513.8 522.1 L 512.0 525.3 L 509.9 528.3 L 506.8 530.5 L 504.1 532.9 L 502.9 536.3 L 500.8 539.4 L 499.3 542.8 L 498.9 546.9 L 498.6 550.8 L 500.5 553.8 L 501.4 557.4 L 497.4 559.3 L 493.8 559.2 L 490.0 559.3 L 486.3 559.3 L 483.3 557.3 L 483.2 553.3 L 486.6 551.5 L 488.2 541.4 L 484.5 543.4 L 481.9 546.1 L 479.3 548.9 L 475.8 550.0 L 472.3 551.1 L 470.1 548.2 L 466.8 546.8 L 463.3 547.8 L 460.4 550.1 L 456.8 550.5 L 453.2 550.9 L 450.1 548.9 L 446.6 547.7 L 443.1 546.2 L 440.7 543.5 L 437.2 542.8 L 433.6 541.5 L 430.4 539.6 L 426.9 540.8 L 423.3 542.3 L 419.7 542.9 L 416.1 542.9 L 412.6 544.7 L 410.9 548.3 L 408.7 551.2 L 406.1 553.8 L 402.4 554.4 L 398.9 555.5 L 395.2 555.2 L 392.4 552.8 L 391.6 549.3 L 387.2 546.1 L 383.7 547.2 L 380.7 545.0 L 377.7 542.9 L 375.3 540.0 L 374.1 536.5 L 373.3 532.9 L 373.0 529.2 L 373.9 525.5 L 376.4 522.8 L 377.1 519.2 L 365.5 518.7 L 349.1 518.0 L 342.1 517.9 L 338.4 517.8 L 333.2 517.7 L 330.8 501.4 L 324.3 491.6 L 330.5 489.6 L 329.8 478.1 L 327.8 475.1 L 326.4 471.6 L 325.1 468.1 L 326.0 464.6 L 325.5 460.9 L 323.8 457.7 L 320.1 456.5 L 321.1 452.9 L 324.6 451.1 L 327.2 448.2 L 327.6 446.4 Z M 650.0 144.3 L 652.8 146.6 L 656.4 147.1 L 658.6 150.1 L 661.4 147.9 L 661.4 151.5 L 665.2 152.5 L 666.7 149.1 L 667.2 152.7 L 670.6 151.6 L 670.5 155.4 L 670.1 159.2 L 669.0 162.6 L 669.0 166.3 L 665.9 168.1 L 667.0 171.9 L 666.6 175.8 L 665.1 179.2 L 662.6 181.8 L 662.3 185.5 L 660.6 188.9 L 657.6 190.9 L 658.7 194.4 L 656.7 197.5 L 655.9 201.2 L 654.1 204.6 L 651.1 207.2 L 649.8 210.7 L 647.7 213.7 L 647.4 217.4 L 645.5 220.5 L 642.9 223.1 L 640.5 225.9 L 639.1 229.3 L 636.7 232.3 L 634.2 236.0 L 630.8 237.3 L 624.2 241.6 L 620.1 244.7 L 615.3 248.6 L 609.3 253.2 L 610.3 257.0 L 614.2 256.7 L 617.6 259.5 L 621.5 261.4 L 618.2 264.3 L 618.9 268.4 L 616.6 271.4 L 614.9 274.6 L 614.9 278.3 L 611.6 280.7 L 609.2 283.5 L 608.3 287.3 L 605.1 289.0 L 601.5 289.7 L 598.0 291.8 L 596.1 295.6 L 596.2 299.2 L 595.2 302.8 L 591.7 306.9 L 592.5 310.8 L 595.4 313.3 L 596.8 316.6 L 596.5 320.3 L 595.5 323.8 L 594.3 327.2 L 591.7 329.9 L 589.9 333.7 L 587.7 337.3 L 584.3 339.6 L 581.7 342.5 L 579.2 346.5 L 576.6 349.5 L 574.5 353.4 L 574.1 357.1 L 572.0 361.3 L 556.4 362.3 L 551.5 362.0 L 545.3 361.6 L 529.8 360.5 L 522.5 360.0 L 513.7 359.4 L 501.4 358.5 L 496.5 358.2 L 490.4 357.7 L 478.0 356.8 L 472.5 356.4 L 465.8 355.9 L 459.4 355.4 L 437.5 353.6 L 428.7 352.9 L 416.3 351.9 L 413.2 349.5 L 409.6 348.4 L 407.5 345.4 L 403.8 341.3 L 400.0 340.2 L 396.8 337.5 L 393.9 334.9 L 393.1 331.3 L 392.4 327.7 L 393.0 324.1 L 389.8 320.2 L 388.4 316.2 L 386.8 311.2 L 385.1 307.8 L 383.0 304.6 L 380.2 301.5 L 379.0 297.9 L 376.5 295.0 L 373.3 291.0 L 373.2 287.0 L 376.0 284.4 L 380.7 276.5 L 387.7 261.3 L 395.3 245.0 L 408.0 218.0 L 409.5 214.6 L 411.1 210.8 L 413.0 206.8 L 420.8 190.0 L 422.8 185.7 L 423.1 181.5 L 427.2 179.5 L 430.0 175.9 L 426.3 176.9 L 423.0 178.6 L 419.3 178.6 L 415.6 179.6 L 415.1 175.9 L 411.4 174.6 L 407.9 172.7 L 406.1 169.4 L 402.6 168.0 L 398.8 167.9 L 395.8 165.8 L 392.1 165.0 L 389.4 162.5 L 386.3 160.4 L 385.0 156.3 L 382.4 153.8 L 378.5 154.5 L 375.5 152.3 L 373.6 149.0 L 370.9 146.0 L 368.1 143.3 L 367.3 139.7 L 365.8 136.3 L 363.5 133.4 L 363.6 128.6 L 362.9 120.4 L 362.9 111.9 L 362.9 97.3 L 366.5 97.7 L 369.6 95.9 L 373.0 94.6 L 374.6 91.3 L 376.6 88.3 L 380.5 89.2 L 384.0 90.4 L 384.6 86.8 L 388.2 86.2 L 391.8 85.6 L 395.5 85.8 L 397.7 82.9 L 399.9 80.0 L 403.5 79.3 L 407.1 79.6 L 410.6 80.5 L 414.2 81.3 L 417.6 80.0 L 421.3 79.8 L 424.8 80.5 L 428.4 81.2 L 431.8 82.4 L 434.3 79.8 L 433.1 76.1 L 431.1 73.0 L 431.9 69.4 L 433.0 65.9 L 436.3 67.5 L 439.8 68.5 L 443.8 68.3 L 448.2 67.8 L 451.5 66.0 L 455.2 65.3 L 458.5 66.7 L 460.7 69.9 L 461.9 73.3 L 461.1 76.9 L 462.1 80.8 L 463.8 84.1 L 467.6 84.1 L 471.2 84.7 L 474.5 86.2 L 477.6 88.2 L 480.6 90.5 L 483.4 93.0 L 487.0 93.4 L 490.9 94.5 L 494.0 97.1 L 493.6 100.8 L 494.7 104.4 L 497.8 106.5 L 500.8 109.2 L 500.9 112.8 L 500.8 116.6 L 502.3 120.5 L 503.7 123.8 L 505.3 127.7 L 508.2 130.3 L 510.7 133.2 L 512.2 136.6 L 513.2 140.8 L 516.3 142.7 L 516.2 146.4 L 518.1 149.5 L 520.6 153.5 L 524.5 153.9 L 527.3 156.4 L 530.2 154.1 L 533.9 154.1 L 536.2 151.0 L 536.1 146.5 L 538.4 142.3 L 541.0 139.8 L 543.0 136.7 L 544.8 133.2 L 547.5 129.5 L 551.1 128.5 L 554.3 125.0 L 557.8 124.0 L 561.2 121.7 L 563.7 118.4 L 565.5 113.9 L 568.4 110.7 L 571.9 109.8 L 575.3 111.9 L 575.4 117.7 L 578.9 119.2 L 582.4 118.3 L 585.9 119.2 L 589.3 124.8 L 600.6 130.6 L 604.3 132.0 L 607.9 132.9 L 611.5 132.4 L 615.2 133.2 L 614.1 136.9 L 619.1 140.7 L 624.8 142.7 L 627.2 140.0 L 630.4 141.9 L 633.7 143.4 L 637.2 144.5 L 638.1 140.9 L 641.9 141.2 L 644.8 143.5 L 647.4 146.0 L 650.0 144.3 Z M 883.8 271.8 L 885.0 275.2 L 882.3 277.7 L 879.7 280.6 L 877.9 283.8 L 877.6 288.0 L 881.7 287.5 L 883.6 290.7 L 887.4 289.0 L 891.4 289.1 L 894.8 291.1 L 896.0 294.5 L 899.6 291.9 L 899.8 288.0 L 902.6 285.3 L 900.5 282.0 L 903.8 278.0 L 907.2 280.6 L 910.9 281.0 L 914.6 282.8 L 918.5 282.5 L 922.2 281.9 L 925.8 282.6 L 929.2 283.9 L 933.2 284.3 L 936.6 283.1 L 938.2 286.3 L 939.3 290.2 L 940.6 293.7 L 941.3 297.3 L 942.0 300.9 L 942.0 304.8 L 940.4 308.2 L 937.5 306.0 L 934.2 304.5 L 930.6 304.3 L 927.3 306.3 L 924.4 308.9 L 921.6 311.7 L 917.7 312.9 L 914.0 313.9 L 910.2 313.8 L 906.7 314.9 L 903.1 314.6 L 900.0 316.6 L 898.2 320.3 L 895.8 323.1 L 892.1 324.7 L 888.7 326.0 L 886.3 323.2 L 885.6 319.6 L 882.1 318.1 L 883.7 314.7 L 884.8 310.9 L 886.7 307.7 L 888.8 304.8 L 885.4 303.1 L 881.7 301.9 L 878.0 303.6 L 875.5 306.7 L 872.1 308.4 L 868.9 310.5 L 866.4 313.1 L 862.3 314.7 L 858.7 314.9 L 857.1 311.6 L 853.5 312.6 L 849.9 311.5 L 849.5 307.9 L 851.0 304.6 L 851.9 301.1 L 848.8 299.2 L 848.0 295.4 L 848.7 291.7 L 849.0 288.0 L 850.0 284.4 L 851.8 281.3 L 855.5 280.8 L 859.0 282.5 L 862.8 283.2 L 865.9 281.0 L 869.2 279.1 L 871.1 276.1 L 874.6 275.1 L 878.2 274.4 L 881.8 272.3 L 883.8 271.8 Z M 885.0 302.4 L 888.6 304.3 L 886.7 307.7 L 884.5 310.6 L 885.1 314.2 L 882.3 316.7 L 885.2 318.9 L 885.6 322.6 L 888.1 325.3 L 891.7 324.8 L 895.1 323.6 L 898.1 321.5 L 898.6 317.7 L 902.1 317.0 L 905.8 314.4 L 909.8 313.7 L 913.4 314.2 L 917.1 312.9 L 920.5 311.6 L 924.1 310.8 L 925.2 307.3 L 928.4 305.6 L 931.7 304.0 L 935.4 304.5 L 938.0 307.5 L 941.4 308.9 L 941.5 312.8 L 941.5 316.6 L 940.7 320.2 L 939.3 323.6 L 938.5 327.2 L 937.3 330.7 L 935.7 334.5 L 934.7 338.1 L 931.6 340.2 L 928.0 339.5 L 924.4 338.7 L 921.2 340.5 L 917.5 339.6 L 913.9 340.7 L 910.2 342.0 L 907.9 344.8 L 905.4 347.7 L 901.9 348.9 L 899.0 351.1 L 895.0 349.6 L 891.2 350.2 L 887.2 349.1 L 883.6 348.8 L 881.7 345.6 L 878.6 343.7 L 875.2 342.3 L 871.8 340.8 L 868.8 342.9 L 866.3 345.6 L 863.0 347.2 L 860.7 350.1 L 858.3 347.2 L 858.0 343.6 L 854.2 343.6 L 853.9 339.8 L 850.5 341.9 L 847.4 339.3 L 843.9 338.0 L 840.4 336.7 L 836.7 336.0 L 834.5 333.1 L 830.8 332.4 L 827.6 334.1 L 824.9 336.7 L 821.9 338.7 L 819.7 342.2 L 816.6 344.5 L 813.1 345.6 L 809.7 349.6 L 806.6 351.7 L 803.6 354.1 L 800.0 353.9 L 799.3 350.2 L 801.1 346.9 L 797.6 345.1 L 796.3 341.6 L 793.9 338.9 L 790.5 337.5 L 787.0 336.3 L 788.8 333.2 L 791.2 330.3 L 794.8 329.7 L 797.3 327.1 L 799.7 324.4 L 802.7 322.4 L 804.0 318.1 L 803.5 314.5 L 801.1 311.5 L 800.4 307.9 L 803.9 304.4 L 808.1 304.2 L 813.5 304.9 L 817.3 304.4 L 820.5 302.8 L 824.6 302.5 L 828.0 304.3 L 831.2 306.2 L 833.7 308.8 L 836.1 311.5 L 839.0 314.4 L 842.6 314.1 L 845.6 311.7 L 849.1 310.8 L 852.1 313.0 L 855.8 312.0 L 858.3 314.9 L 861.8 313.8 L 865.4 313.7 L 868.6 310.7 L 871.9 308.9 L 875.0 307.0 L 877.4 304.2 L 881.2 301.9 L 885.0 302.4 Z M 775.3 194.1 L 778.5 196.4 L 782.2 196.5 L 785.9 198.0 L 785.4 202.3 L 783.8 205.7 L 784.8 209.2 L 784.4 212.8 L 786.9 215.7 L 786.6 219.3 L 787.1 223.0 L 789.7 225.7 L 790.1 230.1 L 788.8 233.4 L 787.7 237.1 L 787.4 240.8 L 787.5 244.4 L 790.1 247.1 L 792.8 249.7 L 794.7 252.8 L 795.2 256.6 L 795.0 260.4 L 795.1 264.3 L 795.6 268.1 L 795.3 271.7 L 796.7 275.8 L 798.4 279.2 L 798.1 282.9 L 799.5 286.6 L 803.6 288.2 L 806.5 290.3 L 806.8 294.7 L 805.5 298.2 L 804.8 302.2 L 801.4 305.4 L 801.4 309.2 L 800.9 313.3 L 804.2 315.8 L 803.3 319.7 L 801.3 322.8 L 798.5 325.0 L 796.5 328.1 L 792.9 329.0 L 790.5 331.7 L 788.0 334.4 L 784.4 336.0 L 781.9 338.9 L 780.0 342.1 L 775.9 343.3 L 773.8 346.6 L 771.4 349.3 L 767.5 349.2 L 763.8 349.9 L 760.5 351.4 L 757.6 354.1 L 754.1 356.0 L 750.7 357.7 L 747.2 355.7 L 744.9 352.8 L 741.3 352.1 L 737.6 352.5 L 734.8 349.7 L 731.2 350.6 L 728.5 353.1 L 725.3 354.9 L 725.1 358.6 L 727.0 361.9 L 728.3 365.3 L 728.3 368.9 L 725.8 372.1 L 723.7 375.3 L 720.2 377.1 L 719.2 381.0 L 715.5 382.0 L 711.4 381.6 L 707.7 382.2 L 705.0 384.6 L 701.5 387.4 L 697.5 388.5 L 694.1 387.3 L 690.4 385.7 L 687.6 382.7 L 686.1 379.3 L 685.9 375.2 L 683.5 372.3 L 680.2 370.8 L 676.6 373.3 L 675.6 369.8 L 676.5 366.2 L 676.6 362.4 L 676.9 358.7 L 677.4 355.1 L 676.5 351.6 L 675.3 348.1 L 674.4 344.6 L 673.1 341.1 L 674.4 337.7 L 677.2 335.0 L 678.7 331.7 L 680.1 328.2 L 682.3 323.9 L 683.2 320.4 L 684.3 316.9 L 685.2 313.3 L 687.3 310.3 L 690.6 308.7 L 694.9 307.0 L 698.4 306.3 L 701.2 303.8 L 705.0 302.9 L 708.2 300.3 L 711.8 297.8 L 714.6 295.4 L 716.7 292.5 L 719.5 289.8 L 723.0 289.0 L 726.5 288.0 L 730.6 288.8 L 734.0 291.3 L 737.6 290.2 L 741.3 289.7 L 745.0 289.1 L 747.3 285.3 L 748.1 281.7 L 748.6 278.1 L 746.1 275.4 L 743.6 272.8 L 742.9 269.0 L 742.5 265.3 L 742.7 261.6 L 745.6 258.6 L 748.1 256.0 L 749.1 252.5 L 748.9 248.6 L 748.1 245.0 L 746.2 241.8 L 747.1 238.3 L 748.4 234.9 L 746.0 232.1 L 745.2 228.5 L 747.7 225.6 L 750.0 222.4 L 752.5 218.2 L 753.2 214.5 L 756.2 211.3 L 759.6 209.9 L 763.2 209.2 L 766.1 206.5 L 769.1 204.5 L 771.1 201.2 L 773.9 198.0 L 772.8 194.6 L 775.3 194.1 Z M 527.1 668.4 L 531.0 670.0 L 534.6 670.4 L 538.5 672.0 L 542.5 671.2 L 546.3 671.6 L 549.9 673.8 L 553.6 674.4 L 556.8 676.3 L 560.5 677.2 L 564.0 678.0 L 567.8 677.4 L 571.3 678.4 L 575.0 677.8 L 578.4 679.1 L 581.2 681.5 L 584.3 683.5 L 585.7 687.1 L 586.3 690.7 L 585.9 694.3 L 587.3 697.9 L 587.2 701.5 L 589.6 704.2 L 592.5 706.9 L 593.7 710.5 L 594.7 714.0 L 593.2 717.4 L 595.7 720.4 L 599.4 720.0 L 603.0 719.7 L 606.7 720.0 L 610.3 719.7 L 611.3 723.3 L 611.1 727.0 L 614.7 727.4 L 618.5 727.5 L 620.4 730.7 L 622.7 733.4 L 620.4 737.3 L 617.3 739.5 L 614.8 742.6 L 612.2 746.8 L 610.6 750.7 L 603.5 751.2 L 599.8 751.8 L 596.1 751.9 L 593.5 754.4 L 589.7 755.6 L 586.4 757.0 L 583.0 755.4 L 580.0 753.0 L 576.4 752.0 L 572.8 752.3 L 569.1 753.3 L 565.4 752.3 L 561.6 753.2 L 559.6 756.2 L 556.5 758.2 L 552.9 757.3 L 549.4 758.4 L 546.4 760.4 L 546.5 764.2 L 544.9 767.5 L 541.2 766.6 L 537.7 765.8 L 533.9 765.8 L 529.9 765.4 L 526.5 763.9 L 522.8 762.8 L 519.1 762.0 L 515.3 761.6 L 511.8 760.2 L 507.8 760.2 L 503.9 760.6 L 500.2 759.9 L 497.1 757.9 L 493.5 758.8 L 490.0 757.9 L 487.6 755.1 L 485.8 751.9 L 484.5 748.5 L 483.9 744.9 L 481.2 742.4 L 477.6 741.4 L 473.9 741.1 L 470.6 743.2 L 467.2 741.7 L 465.9 738.4 L 468.1 735.2 L 469.8 731.8 L 469.6 728.2 L 470.6 724.6 L 472.0 721.3 L 472.9 717.8 L 473.3 714.0 L 473.7 710.4 L 472.3 707.0 L 476.5 703.6 L 478.5 700.3 L 479.3 696.1 L 480.5 691.8 L 483.5 689.6 L 487.0 687.2 L 488.7 683.5 L 489.4 679.8 L 491.6 676.8 L 494.8 675.0 L 498.8 673.2 L 502.1 670.5 L 506.4 669.1 L 510.1 670.1 L 514.1 669.2 L 517.6 670.2 L 521.3 670.8 L 524.9 669.5 L 527.1 668.4 Z M 708.6 686.6 L 705.0 687.7 L 701.6 686.5 L 701.2 682.8 L 701.9 679.1 L 705.4 677.6 L 708.8 676.0 L 712.5 675.9 L 715.5 673.2 L 713.8 669.9 L 710.2 670.2 L 706.6 670.2 L 703.7 667.9 L 703.3 664.3 L 706.8 663.2 L 710.2 661.7 L 713.9 661.4 L 717.5 660.8 L 721.0 659.3 L 724.4 657.8 L 727.9 657.4 L 731.6 657.5 L 736.1 656.0 L 739.9 656.2 L 743.2 657.8 L 746.3 655.7 L 750.0 653.9 L 753.3 652.4 L 757.8 650.4 L 761.5 649.2 L 760.6 645.6 L 762.1 642.3 L 763.5 638.9 L 764.3 635.3 L 766.6 632.4 L 769.0 629.7 L 771.0 626.5 L 774.6 626.8 L 775.8 630.4 L 775.5 634.0 L 779.0 635.3 L 782.6 636.7 L 786.2 637.2 L 789.8 636.9 L 793.2 638.3 L 792.6 642.1 L 791.7 645.6 L 792.5 649.1 L 793.4 652.8 L 792.2 656.4 L 788.5 658.5 L 785.1 659.6 L 781.4 660.6 L 778.1 661.9 L 774.8 663.9 L 772.4 666.6 L 769.6 668.9 L 769.4 672.8 L 769.5 676.5 L 765.8 678.4 L 762.0 678.1 L 758.1 678.0 L 753.9 678.0 L 750.3 678.6 L 746.3 678.9 L 742.7 678.5 L 743.4 674.8 L 740.3 672.9 L 739.1 676.4 L 738.1 679.9 L 734.5 680.1 L 730.9 680.9 L 727.8 678.8 L 724.6 677.2 L 721.1 678.1 L 718.0 680.2 L 714.3 679.7 L 711.0 678.2 L 707.7 680.5 L 704.3 681.8 L 704.6 685.5 L 708.3 686.2 L 708.6 686.6 Z M 715.3 681.7 L 718.7 683.6 L 715.2 684.4 L 715.3 681.7 Z M 725.1 680.9 L 721.4 681.9 L 724.9 680.9 L 725.1 680.9 Z M 885.6 245.3 L 889.2 245.2 L 892.8 246.4 L 895.9 248.7 L 899.8 248.9 L 903.5 248.8 L 907.1 249.1 L 910.9 248.7 L 914.5 247.9 L 918.1 248.7 L 921.9 249.8 L 925.5 250.7 L 928.0 253.3 L 929.8 256.6 L 931.3 259.9 L 932.4 263.5 L 933.0 267.7 L 934.7 271.1 L 935.0 275.0 L 936.6 278.3 L 937.9 282.0 L 934.3 283.7 L 930.7 284.0 L 927.0 282.7 L 923.3 282.6 L 918.9 282.5 L 914.6 282.8 L 911.5 280.9 L 907.2 281.4 L 906.2 278.0 L 902.9 279.6 L 900.6 282.4 L 902.8 286.0 L 900.2 288.5 L 898.6 293.4 L 894.8 293.4 L 894.5 289.7 L 890.7 289.5 L 886.3 289.4 L 882.6 289.4 L 879.4 287.7 L 877.7 284.4 L 880.0 281.4 L 881.5 277.8 L 884.5 275.7 L 885.0 272.1 L 881.1 272.5 L 877.6 274.6 L 873.9 275.2 L 870.5 276.8 L 868.5 279.9 L 864.8 281.2 L 861.9 283.4 L 858.2 283.1 L 855.2 280.8 L 851.7 279.5 L 852.5 275.6 L 854.8 272.7 L 858.5 272.6 L 860.8 269.7 L 862.7 266.4 L 863.3 262.8 L 866.2 259.8 L 868.5 256.7 L 870.2 253.4 L 871.6 249.3 L 873.8 245.1 L 878.0 244.1 L 883.0 243.0 L 885.6 245.3 Z M 181.0 364.1 L 177.5 364.6 L 172.7 362.6 L 175.6 360.2 L 179.0 358.7 L 181.9 355.7 L 185.1 353.5 L 189.1 352.9 L 192.8 353.0 L 195.6 355.3 L 199.2 355.5 L 201.9 353.0 L 205.5 354.2 L 205.5 350.5 L 209.1 349.7 L 211.9 352.3 L 215.5 351.6 L 217.9 348.6 L 218.2 344.8 L 221.2 342.8 L 225.5 343.4 L 229.0 342.4 L 232.6 341.3 L 236.6 342.0 L 237.1 338.3 L 239.6 335.2 L 242.0 332.4 L 240.7 329.0 L 243.0 326.0 L 246.8 325.0 L 248.3 321.4 L 250.9 318.3 L 267.4 318.4 L 271.1 320.9 L 272.6 324.3 L 275.0 327.1 L 278.6 328.0 L 280.0 331.4 L 283.4 333.3 L 284.5 336.8 L 287.7 338.8 L 291.4 339.6 L 294.0 336.7 L 297.7 338.1 L 300.6 340.8 L 299.4 344.2 L 299.6 348.6 L 297.2 351.8 L 299.6 355.1 L 300.4 358.9 L 299.7 362.4 L 299.3 366.2 L 298.1 369.7 L 299.0 373.8 L 300.9 376.8 L 301.0 380.4 L 300.6 384.2 L 299.7 388.2 L 312.3 390.9 L 316.3 390.8 L 325.2 390.9 L 328.0 393.7 L 331.7 393.8 L 335.4 393.9 L 337.1 397.2 L 338.2 400.7 L 335.6 403.2 L 333.6 406.4 L 333.8 410.0 L 336.4 413.0 L 337.2 416.5 L 338.7 420.3 L 341.7 423.3 L 339.8 426.6 L 336.3 428.0 L 334.5 431.4 L 334.3 435.3 L 332.3 438.5 L 329.5 441.1 L 328.5 444.7 L 327.3 448.2 L 324.8 451.0 L 321.6 452.8 L 319.2 455.4 L 315.7 454.2 L 312.6 452.1 L 309.0 451.8 L 305.4 451.2 L 302.0 452.3 L 298.4 451.4 L 294.8 451.7 L 291.1 451.3 L 288.8 448.5 L 286.2 446.0 L 284.4 442.7 L 280.6 442.4 L 277.2 441.1 L 273.6 440.2 L 270.0 439.6 L 267.3 437.0 L 264.0 435.3 L 262.3 432.1 L 258.7 431.1 L 255.1 430.9 L 252.2 428.8 L 249.3 426.5 L 245.7 425.7 L 242.4 427.4 L 238.8 427.0 L 235.2 426.3 L 231.5 426.1 L 228.4 424.1 L 227.8 420.5 L 224.2 419.8 L 221.3 417.2 L 218.0 415.7 L 215.8 412.8 L 214.4 409.3 L 210.6 408.8 L 210.5 405.1 L 208.5 401.9 L 207.4 397.1 L 208.4 393.6 L 209.6 390.0 L 208.1 386.6 L 207.6 383.0 L 206.1 379.6 L 206.8 375.9 L 209.0 372.8 L 208.6 369.2 L 208.1 365.6 L 208.2 361.8 L 205.6 359.2 L 203.3 362.0 L 199.6 362.3 L 195.9 361.9 L 192.1 362.3 L 188.4 361.9 L 185.0 363.2 L 181.4 364.0 L 181.0 364.1 Z M 338.3 51.1 L 337.5 54.7 L 336.6 58.3 L 336.6 62.0 L 337.9 65.4 L 338.8 68.9 L 341.3 71.7 L 342.6 75.1 L 342.7 78.7 L 343.7 82.1 L 345.5 85.4 L 348.7 87.4 L 351.1 90.1 L 353.8 92.6 L 357.0 94.2 L 360.6 94.9 L 362.9 111.9 L 362.9 120.4 L 355.7 120.4 L 349.9 120.4 L 335.4 120.4 L 333.5 123.5 L 331.9 126.9 L 330.3 130.7 L 329.0 134.2 L 327.3 137.9 L 327.9 141.7 L 326.2 145.1 L 323.6 147.7 L 319.3 147.5 L 317.2 144.6 L 314.5 141.7 L 311.2 139.8 L 307.5 138.9 L 304.4 141.1 L 301.1 142.7 L 299.0 146.2 L 298.3 150.3 L 298.7 153.9 L 297.7 157.4 L 298.5 161.0 L 301.0 163.7 L 297.7 161.5 L 293.8 159.9 L 290.3 158.9 L 288.5 155.8 L 285.8 153.1 L 283.3 150.3 L 280.1 148.4 L 277.3 146.0 L 279.3 143.0 L 280.8 139.6 L 282.9 136.5 L 282.5 132.8 L 280.6 129.2 L 279.5 125.7 L 277.7 122.0 L 277.1 118.5 L 275.7 115.0 L 275.3 110.5 L 277.1 107.0 L 277.5 103.2 L 275.1 99.7 L 273.6 94.2 L 271.5 91.2 L 268.9 88.5 L 270.7 83.0 L 268.7 78.8 L 264.7 78.2 L 261.5 76.5 L 257.9 74.8 L 254.6 72.7 L 254.7 68.8 L 250.8 68.7 L 247.2 69.5 L 243.3 68.4 L 239.9 67.2 L 240.1 63.6 L 239.9 59.9 L 238.5 56.6 L 236.1 53.3 L 235.1 49.7 L 234.5 45.7 L 235.7 42.3 L 234.0 39.0 L 231.1 36.5 L 227.6 34.3 L 225.1 31.4 L 222.8 28.0 L 220.4 25.3 L 224.3 25.4 L 227.1 27.8 L 230.7 27.3 L 234.4 27.5 L 237.9 29.3 L 240.1 32.2 L 243.8 31.8 L 247.4 32.6 L 250.9 33.5 L 253.7 31.3 L 257.4 31.4 L 258.9 34.7 L 262.3 36.2 L 264.1 39.6 L 267.3 37.8 L 270.5 36.1 L 269.3 32.6 L 271.7 29.8 L 275.3 29.5 L 277.1 26.3 L 280.7 27.3 L 284.3 28.4 L 287.4 26.8 L 291.1 26.8 L 293.9 24.5 L 297.5 24.4 L 299.8 21.5 L 303.2 20.3 L 305.8 17.7 L 309.4 18.3 L 312.9 17.5 L 314.5 14.1 L 317.9 12.3 L 320.5 9.8 L 321.6 6.2 L 320.5 2.7 L 324.1 1.6 L 327.7 1.5 L 331.0 0.1 L 333.8 2.4 L 336.2 5.2 L 336.1 8.9 L 335.6 12.6 L 334.3 16.0 L 336.5 18.9 L 340.1 19.8 L 343.4 21.3 L 342.7 24.9 L 345.5 27.4 L 346.6 30.9 L 346.3 34.5 L 344.3 37.6 L 341.3 39.8 L 340.6 43.3 L 340.2 46.9 L 338.5 50.3 L 338.3 51.1 Z M 527.6 885.7 L 525.2 888.6 L 523.3 892.1 L 525.9 895.0 L 526.1 898.6 L 523.5 901.7 L 521.3 904.6 L 519.6 907.9 L 518.4 911.3 L 517.4 915.1 L 515.6 918.8 L 513.9 922.0 L 511.3 925.4 L 507.3 928.9 L 503.5 931.9 L 500.3 934.6 L 496.7 937.1 L 492.0 936.5 L 492.3 932.8 L 494.1 929.6 L 493.4 926.0 L 495.6 923.0 L 499.0 921.5 L 500.6 917.7 L 503.6 915.1 L 506.7 917.0 L 510.5 916.8 L 512.5 913.4 L 514.1 910.0 L 513.8 906.4 L 512.0 903.1 L 513.5 899.8 L 510.2 901.3 L 509.7 905.0 L 506.7 907.1 L 504.6 910.2 L 501.1 911.3 L 497.5 910.7 L 494.0 908.9 L 490.6 906.8 L 488.8 903.5 L 487.5 900.2 L 485.0 897.3 L 482.2 895.0 L 478.7 894.1 L 469.6 887.5 L 468.2 884.2 L 464.5 882.8 L 460.7 882.4 L 457.7 880.3 L 454.2 879.4 L 450.8 878.1 L 448.7 875.2 L 446.5 872.2 L 443.9 869.4 L 440.5 870.7 L 437.1 872.2 L 433.6 873.8 L 432.2 870.4 L 431.9 866.7 L 428.9 864.8 L 426.8 861.6 L 423.4 859.9 L 420.7 857.4 L 418.0 854.9 L 415.5 852.1 L 412.4 850.0 L 408.6 849.9 L 405.2 851.5 L 403.3 854.8 L 399.6 854.4 L 396.0 854.7 L 393.2 852.4 L 396.6 850.9 L 399.2 848.3 L 400.6 844.9 L 403.4 842.5 L 407.2 840.7 L 409.5 837.8 L 412.9 835.4 L 415.2 832.6 L 416.8 829.2 L 419.3 826.5 L 422.6 825.2 L 424.6 822.1 L 426.2 818.4 L 429.5 816.3 L 432.4 814.1 L 435.0 811.3 L 437.5 808.5 L 438.9 805.2 L 441.8 802.7 L 445.3 802.0 L 447.8 799.1 L 450.9 797.0 L 454.4 795.9 L 457.7 794.4 L 458.9 790.9 L 462.4 789.6 L 465.9 788.1 L 469.6 787.2 L 472.9 785.6 L 476.0 783.1 L 479.4 781.9 L 482.1 779.4 L 485.9 779.3 L 489.1 781.0 L 492.8 780.6 L 495.4 778.0 L 498.5 780.0 L 502.9 779.5 L 506.4 780.6 L 510.0 780.7 L 513.5 782.1 L 517.1 782.1 L 520.7 782.9 L 524.5 782.3 L 527.7 784.0 L 529.7 787.1 L 533.3 788.3 L 537.1 788.0 L 540.9 789.2 L 543.6 791.6 L 546.7 794.0 L 550.2 795.6 L 552.2 798.7 L 555.6 800.7 L 557.8 803.8 L 560.0 806.7 L 562.7 809.1 L 566.3 810.1 L 570.2 810.7 L 574.0 810.4 L 577.7 810.6 L 581.3 811.4 L 583.7 814.3 L 580.7 816.4 L 577.7 818.5 L 578.0 822.4 L 577.5 826.1 L 574.3 827.9 L 574.6 831.5 L 577.3 828.9 L 580.8 830.4 L 581.8 834.0 L 579.0 837.8 L 576.9 841.2 L 575.2 844.5 L 573.4 848.3 L 572.0 851.7 L 570.7 855.1 L 569.3 858.7 L 567.3 861.9 L 565.0 865.0 L 562.5 868.6 L 560.2 871.6 L 556.3 876.6 L 553.5 879.1 L 549.8 882.3 L 546.7 885.5 L 541.6 889.1 L 538.0 891.2 L 533.0 893.7 L 529.1 896.9 L 526.7 899.7 L 527.6 896.1 L 526.5 892.6 L 530.3 892.5 L 533.7 891.2 L 537.2 889.9 L 539.6 887.3 L 541.9 883.9 L 545.6 883.8 L 548.2 880.9 L 548.8 876.9 L 550.9 873.7 L 553.8 871.5 L 556.4 868.5 L 559.5 866.3 L 560.4 862.5 L 559.9 858.3 L 563.4 856.7 L 562.7 853.2 L 559.4 855.0 L 555.4 855.6 L 551.7 857.1 L 550.6 853.6 L 547.2 852.4 L 546.8 848.7 L 544.9 851.8 L 546.0 855.2 L 549.6 856.5 L 546.7 858.7 L 545.4 862.7 L 542.9 866.0 L 541.2 869.2 L 541.2 872.8 L 538.2 875.0 L 536.7 878.4 L 533.0 878.9 L 529.6 880.3 L 528.4 883.9 L 527.8 888.6 L 527.6 885.7 Z M 487.3 765.1 L 487.6 761.5 L 489.1 758.2 L 492.9 758.8 L 496.3 757.6 L 499.7 759.6 L 503.5 760.8 L 507.5 760.3 L 511.2 760.0 L 514.4 761.6 L 518.5 762.2 L 522.1 762.7 L 525.9 763.1 L 529.0 765.3 L 532.7 765.8 L 536.7 765.3 L 540.4 765.7 L 542.9 768.5 L 546.2 767.0 L 546.3 763.3 L 546.6 759.7 L 550.0 758.3 L 553.8 758.1 L 557.6 757.1 L 560.9 754.9 L 563.0 751.8 L 566.7 753.2 L 570.3 752.7 L 573.9 752.9 L 577.4 752.1 L 580.8 753.3 L 583.9 755.5 L 587.3 757.3 L 590.6 755.7 L 593.7 753.7 L 596.7 751.7 L 600.6 752.0 L 607.7 751.3 L 610.4 754.7 L 612.2 758.1 L 610.5 761.4 L 609.1 764.8 L 608.5 768.5 L 609.6 771.9 L 609.9 775.7 L 610.7 779.2 L 610.2 782.9 L 609.6 786.5 L 611.1 790.0 L 610.6 793.8 L 610.8 797.4 L 610.2 801.0 L 609.0 804.4 L 607.9 808.0 L 606.4 811.6 L 604.2 814.5 L 600.8 816.2 L 597.1 818.5 L 593.8 820.9 L 590.6 823.7 L 587.8 826.7 L 585.2 829.5 L 581.7 830.6 L 578.4 828.8 L 574.9 829.7 L 577.0 826.7 L 578.2 823.3 L 577.8 819.6 L 580.1 816.6 L 583.2 814.7 L 582.4 810.8 L 578.4 810.6 L 574.9 811.2 L 571.2 810.8 L 567.6 810.5 L 564.0 809.5 L 560.7 807.9 L 558.5 804.9 L 555.8 802.5 L 554.4 799.0 L 551.3 797.0 L 548.1 794.4 L 545.1 791.9 L 541.7 790.3 L 538.4 788.3 L 534.6 787.4 L 530.9 786.8 L 528.1 784.4 L 524.7 783.2 L 520.7 782.9 L 517.1 781.4 L 513.5 782.1 L 510.0 780.7 L 506.4 780.6 L 504.1 777.7 L 500.6 779.1 L 497.1 780.9 L 493.6 779.5 L 489.9 780.2 L 486.2 779.4 L 487.0 775.8 L 487.9 772.3 L 486.5 768.8 L 487.3 765.1 L 487.3 765.1 Z M 614.9 785.1 L 614.6 788.7 L 613.2 792.2 L 611.8 795.5 L 611.0 791.9 L 612.1 788.3 L 614.5 785.6 L 614.9 785.1 Z M 866.1 355.8 L 869.5 357.3 L 873.1 358.8 L 878.0 361.0 L 881.5 362.8 L 885.5 364.7 L 888.7 366.6 L 890.9 369.6 L 893.7 372.3 L 897.2 373.5 L 899.8 376.5 L 903.6 378.8 L 900.2 380.4 L 896.9 382.3 L 893.7 384.1 L 890.9 386.9 L 888.7 389.8 L 886.6 392.8 L 884.3 396.4 L 882.2 399.4 L 879.7 402.6 L 875.9 404.3 L 872.3 404.1 L 868.8 402.4 L 865.7 400.6 L 865.3 396.9 L 863.1 393.9 L 860.9 390.8 L 859.4 387.0 L 862.2 384.3 L 865.8 385.2 L 869.6 383.7 L 869.3 380.1 L 869.0 376.4 L 870.8 371.8 L 869.4 367.9 L 866.1 366.4 L 866.0 362.7 L 864.2 359.5 L 864.8 355.9 L 866.1 355.8 Z M 669.5 700.2 L 668.0 703.6 L 664.3 702.9 L 660.9 704.6 L 655.8 707.0 L 652.2 709.1 L 649.2 711.2 L 647.0 714.2 L 644.1 716.5 L 640.1 719.0 L 636.0 721.3 L 632.6 723.7 L 629.3 726.3 L 627.0 729.1 L 625.4 732.4 L 622.5 735.1 L 620.1 732.2 L 619.7 728.5 L 615.9 727.8 L 612.5 729.6 L 611.1 726.3 L 611.8 722.6 L 609.3 720.0 L 605.6 719.8 L 601.7 720.1 L 598.1 719.9 L 594.4 720.2 L 593.4 716.7 L 595.1 713.5 L 593.5 710.2 L 592.0 706.6 L 589.4 704.2 L 587.1 701.2 L 587.2 697.6 L 585.8 694.1 L 586.3 690.6 L 585.6 686.9 L 584.0 683.5 L 580.9 681.4 L 577.8 679.0 L 574.4 677.7 L 570.9 678.3 L 567.4 677.3 L 563.7 677.4 L 559.6 678.4 L 556.7 676.1 L 553.2 674.4 L 548.9 673.6 L 545.9 671.5 L 541.9 671.2 L 537.9 671.4 L 534.1 670.3 L 530.1 669.2 L 526.6 668.1 L 524.3 671.2 L 519.7 670.6 L 516.1 670.5 L 511.8 670.6 L 508.0 670.1 L 504.3 669.9 L 507.3 666.4 L 510.7 663.8 L 514.2 662.1 L 517.6 660.0 L 520.3 657.0 L 522.0 653.5 L 524.4 650.7 L 527.4 647.4 L 527.0 643.6 L 530.5 641.9 L 532.3 637.9 L 533.1 634.3 L 535.2 631.0 L 537.5 627.9 L 538.3 623.0 L 541.5 619.5 L 544.0 616.7 L 548.6 614.8 L 551.5 612.3 L 553.5 608.3 L 557.0 606.5 L 560.9 605.2 L 564.3 602.6 L 567.7 603.7 L 571.4 604.3 L 575.7 605.4 L 579.3 606.1 L 583.6 605.8 L 587.3 605.3 L 590.8 607.0 L 594.5 606.6 L 593.4 610.3 L 595.0 614.3 L 598.6 612.5 L 601.5 616.9 L 603.8 613.3 L 607.2 611.1 L 610.8 610.6 L 615.0 610.2 L 618.9 610.8 L 622.5 611.0 L 625.1 608.4 L 628.8 607.3 L 632.6 607.5 L 636.5 607.0 L 639.8 609.5 L 642.7 612.1 L 641.7 615.8 L 643.3 619.1 L 645.9 621.7 L 644.3 625.0 L 643.1 628.7 L 645.2 631.6 L 646.0 635.2 L 647.8 638.3 L 649.2 641.7 L 652.8 640.7 L 656.4 640.5 L 659.7 642.1 L 660.4 645.7 L 657.7 648.2 L 656.3 651.6 L 657.5 655.1 L 658.1 658.7 L 655.8 661.9 L 656.8 665.3 L 660.1 666.8 L 662.6 669.6 L 662.6 673.2 L 663.8 676.6 L 668.1 676.4 L 671.6 677.1 L 675.0 675.2 L 678.7 674.8 L 680.2 671.2 L 683.9 671.2 L 688.0 670.8 L 691.5 669.1 L 694.7 667.1 L 698.3 666.4 L 702.2 665.3 L 704.6 668.2 L 707.7 670.1 L 711.4 670.0 L 715.0 670.1 L 714.9 673.7 L 711.9 676.1 L 708.3 676.4 L 704.8 677.6 L 701.6 679.5 L 701.1 683.4 L 702.2 687.1 L 698.7 688.0 L 695.3 689.8 L 693.0 692.6 L 689.3 693.4 L 686.5 695.8 L 686.5 699.6 L 682.8 698.6 L 679.1 698.0 L 675.5 697.9 L 672.0 699.1 L 669.5 700.2 Z M 689.2 701.6 L 688.5 697.9 L 690.5 701.0 L 689.2 701.6 Z M 648.0 342.6 L 650.9 345.0 L 653.2 348.1 L 654.1 351.6 L 657.7 352.9 L 659.7 356.1 L 657.2 359.7 L 659.8 362.5 L 661.5 365.9 L 663.6 370.0 L 667.1 371.2 L 671.6 371.4 L 675.8 372.8 L 679.4 372.0 L 677.8 375.5 L 675.3 378.1 L 672.2 380.7 L 668.8 382.0 L 666.8 385.3 L 666.0 388.9 L 663.2 391.4 L 662.0 394.9 L 658.9 397.0 L 659.7 400.9 L 662.6 403.7 L 666.4 404.5 L 669.8 405.6 L 666.2 406.1 L 664.1 409.0 L 665.0 412.7 L 668.7 412.8 L 665.0 414.1 L 664.1 417.8 L 664.1 421.6 L 665.5 424.9 L 669.0 426.6 L 666.1 429.2 L 666.4 432.9 L 666.0 436.7 L 669.8 437.0 L 666.2 438.5 L 663.8 435.6 L 660.6 438.5 L 654.8 438.4 L 652.0 440.8 L 648.7 442.4 L 645.1 444.2 L 641.3 445.2 L 637.7 444.6 L 635.0 442.0 L 633.2 445.2 L 633.3 448.9 L 629.6 447.2 L 625.9 446.6 L 622.3 446.1 L 620.6 442.7 L 617.4 444.7 L 613.7 445.9 L 612.7 442.4 L 611.3 445.8 L 610.7 441.8 L 608.4 439.0 L 605.9 436.3 L 601.3 438.1 L 598.7 435.5 L 595.2 436.4 L 593.5 439.8 L 592.5 443.4 L 586.1 442.6 L 581.1 439.8 L 577.8 438.2 L 574.2 437.0 L 570.8 435.6 L 569.5 432.1 L 571.7 428.9 L 572.9 425.5 L 569.6 426.9 L 567.1 429.6 L 565.5 432.8 L 562.3 435.0 L 561.0 431.5 L 560.9 427.3 L 561.2 423.5 L 560.2 420.0 L 560.4 416.4 L 561.3 412.8 L 559.7 409.6 L 560.8 406.1 L 558.9 402.0 L 559.9 398.6 L 560.7 394.9 L 561.9 391.4 L 561.8 387.2 L 562.6 383.6 L 564.2 380.3 L 565.3 376.8 L 567.1 373.2 L 567.8 369.6 L 569.9 366.6 L 571.3 363.3 L 572.9 360.0 L 574.3 356.5 L 575.1 352.7 L 576.9 348.7 L 579.8 345.5 L 582.2 341.6 L 585.3 339.3 L 589.0 335.6 L 591.1 332.4 L 593.2 328.7 L 595.1 324.6 L 596.1 320.8 L 596.8 317.2 L 596.0 313.6 L 593.0 311.3 L 591.5 308.0 L 594.4 303.8 L 596.3 300.6 L 596.1 296.8 L 595.7 293.2 L 598.7 291.2 L 602.2 289.3 L 606.1 288.6 L 609.1 286.3 L 609.6 282.6 L 612.2 279.9 L 615.8 279.3 L 614.3 275.6 L 617.4 273.8 L 617.8 270.2 L 617.6 265.7 L 620.9 263.4 L 619.3 260.1 L 616.6 257.7 L 613.0 257.1 L 609.3 256.2 L 611.2 252.9 L 616.0 250.9 L 619.4 252.5 L 622.9 253.5 L 627.5 253.1 L 629.8 256.1 L 634.0 257.9 L 637.2 260.5 L 637.0 264.2 L 638.5 267.8 L 638.5 271.8 L 639.2 275.9 L 638.9 280.0 L 637.9 283.9 L 637.0 287.5 L 636.2 291.1 L 635.7 295.3 L 633.3 298.4 L 633.2 302.2 L 636.8 302.0 L 634.6 305.5 L 637.6 307.7 L 639.6 310.7 L 642.5 312.9 L 644.9 316.1 L 647.3 319.1 L 651.0 318.5 L 654.5 317.5 L 658.3 316.5 L 661.2 318.9 L 660.5 323.0 L 659.8 326.7 L 655.9 327.4 L 653.3 330.3 L 651.0 333.2 L 650.6 336.9 L 649.0 340.1 L 648.0 342.6 Z M 641.4 512.2 L 637.7 512.5 L 634.0 512.5 L 629.2 512.5 L 625.2 512.5 L 620.9 512.5 L 618.5 509.6 L 619.4 505.8 L 620.0 502.2 L 623.5 499.3 L 633.9 499.3 L 637.6 499.3 L 641.0 501.4 L 641.3 505.2 L 639.8 508.8 L 641.2 512.2 L 641.4 512.2 Z"/>
</svg>